<svg width="874" height="874" viewBox="0 0 874 874" fill="none" xmlns="http://www.w3.org/2000/svg">
<rect width="874" height="874" fill="#F5F5F5"/>
<g clip-path="url(#clip0_1_2)">
<path d="M153 425C153 358.726 206.726 305 273 305H313C379.274 305 433 358.726 433 425V465C433 531.274 379.274 585 313 585H273C206.726 585 153 531.274 153 465V425Z" fill="#4A5568"/>
<rect x="193" y="345" width="200" height="40" rx="20" fill="white"/>
<rect x="193" y="405" width="40" height="40" rx="4" fill="white"/>
<rect x="253" y="405" width="40" height="40" rx="4" fill="white"/>
<rect x="313" y="405" width="40" height="40" rx="4" fill="white"/>
<rect x="193" y="465" width="40" height="40" rx="4" fill="white"/>
<rect x="253" y="465" width="40" height="40" rx="4" fill="white"/>
<rect x="313" y="465" width="40" height="40" rx="4" fill="white"/>
<path d="M193 425H233V445H193V425Z" fill="white"/>
<path d="M253 425H293V445H253V425Z" fill="white"/>
<path d="M313 425H353V445H313V425Z" fill="white"/>
<path d="M193 485H233V505H193V485Z" fill="white"/>
<path d="M253 485H293V505H253V485Z" fill="white"/>
<path d="M313 485H353V505H313V485Z" fill="white"/>
</g>
<text x="470" y="480" font-family="Arial, sans-serif" font-size="180" font-weight="600" fill="#4A5568">calc</text>
<text x="730" y="480" font-family="Arial, sans-serif" font-size="180" font-weight="600" fill="#319795">AI</text>
<defs>
<clipPath id="clip0_1_2">
<rect width="874" height="874" fill="white"/>
</clipPath>
</defs>
</svg>
